<svg xmlns="http://www.w3.org/2000/svg" width="48" height="41" fill-rule="evenodd"><circle fill-opacity="0" fill="#d8d8d8" cx="24" cy="20" r="26"/><g fill="#fff" fill-rule="nonzero"><path d="M36 13.062a1 1 0 0 0-1-1H5a1 1 0 0 0-1 1v4a1 1 0 0 0 1 1h30a1 1 0 0 0 1-1v-4zm-2 3H6v-2h28v2zm-29-8h22a1 1 0 1 0 0-2H5a1 1 0 1 0 0 2z"/><circle cx="34" cy="6.063" r="2"/><path d="M28 25.062a1 1 0 1 0-2 0c0 1.803.647 2.774 1.168 3.555.465.697.832 1.248.832 2.445a1 1 0 1 0 2 0c0-1.803-.647-2.774-1.168-3.555C28.367 26.8 28 26.26 28 25.062zm-17-1a1 1 0 0 0-1 1c0 1.197-.367 1.748-.832 2.445C8.647 28.288 8 29.26 8 31.063a1 1 0 0 0 2 0c0-1.197.367-1.748.832-2.445.52-.78 1.168-1.752 1.168-3.555a1 1 0 0 0-1-1zm8 0a1 1 0 0 0-1 1v6a1 1 0 1 0 2 0v-6a1 1 0 0 0-1-1zm23 0h-1v-1a1 1 0 1 0-2 0v1h-1a1 1 0 1 0 0 2h1v1a1 1 0 1 0 2 0v-1h1a1 1 0 1 0 0-2zm0 8h-4a1 1 0 1 0 0 2h4a1 1 0 1 0 0-2zm2-14h-4v-14c0-2.206-1.794-4-4-4H4c-2.206 0-4 1.794-4 4v14c0 2.206 1.794 4 4 4h28v10a8.01 8.01 0 0 0 8 8 8.01 8.01 0 0 0 8-8v-10c0-2.206-1.794-4-4-4zm-11.444 2H4c-1.102 0-2-.897-2-2v-14c0-1.102.897-2 2-2h32c1.102 0 2 .897 2 2v14h-2c-1.474 0-2.75.8-3.444 2zm13.444 12a6.01 6.01 0 0 1-6 6 6.01 6.01 0 0 1-6-6v-10c0-1.103.897-2 2-2h8c1.102 0 2 .897 2 2v10z"/></g></svg>