<svg xmlns="http://www.w3.org/2000/svg" width="48" height="25" fill-rule="evenodd"><circle cx="24" cy="12" r="26" fill="#d8d8d8" fill-opacity="0"/><path d="M42.737 0H10.205a5.27 5.27 0 0 0-5.263 5.263v.866H3.158A3.16 3.16 0 0 0 0 9.287v5.53a3.16 3.16 0 0 0 3.158 3.158h1.784v.866a5.27 5.27 0 0 0 5.263 5.263h32.532A5.27 5.27 0 0 0 48 18.842V5.263A5.27 5.27 0 0 0 42.737 0zM3.158 15.87c-.58-.001-1.052-.472-1.053-1.053v-5.53c.001-.58.472-1.052 1.053-1.053h1.784v7.636H3.158zm42.737 2.972A3.16 3.16 0 0 1 42.737 22H10.205a3.16 3.16 0 0 1-3.158-3.158V5.263a3.16 3.16 0 0 1 3.158-3.158h32.532a3.16 3.16 0 0 1 3.158 3.158v13.58zM19.6 11h-1.843V9.157c0-.58-.47-1.053-1.053-1.053a1.05 1.05 0 0 0-1.053 1.053V11h-1.843c-.58 0-1.053.47-1.053 1.053a1.05 1.05 0 0 0 1.053 1.053h1.843v1.843c0 .58.47 1.053 1.053 1.053a1.05 1.05 0 0 0 1.053-1.053v-1.843H19.6c.58 0 1.053-.47 1.053-1.053S20.2 11 19.6 11zm18.95-2.896c-.58 0-1.053.47-1.053 1.053v5.792c0 .58.47 1.053 1.053 1.053a1.05 1.05 0 0 0 1.053-1.053V9.157c0-.58-.47-1.053-1.053-1.053z" fill="#333" fill-rule="nonzero"/></svg>