<svg xmlns="http://www.w3.org/2000/svg" width="48" height="36" fill-rule="evenodd"><circle fill-opacity="0" fill="#d8d8d8" cx="24" cy="18" r="26"/><g fill="#fff" fill-rule="nonzero"><path d="M24 26a6.01 6.01 0 0 0 6-6 6.01 6.01 0 0 0-6-6 6.01 6.01 0 0 0-6 6 6.01 6.01 0 0 0 6 6zm0-10c2.206 0 4 1.794 4 4s-1.794 4-4 4-4-1.794-4-4 1.794-4 4-4zm-1 5a1 1 0 0 0 1-1 1 1 0 1 0 0-2c-1.102 0-2 .897-2 2a1 1 0 0 0 1 1zM47 0H1a1 1 0 0 0-1 1v7c0 2.206 1.794 4 4 4v4c0 11.028 8.972 20 20 20s20-8.972 20-20v-4c2.206 0 4-1.794 4-4V1a1 1 0 0 0-1-1zm-5 16c0 9.925-8.075 18-18 18S6 25.925 6 16v-4h12.062C15.6 13.824 14 16.717 14 20c0 5.514 4.486 10 10 10s10-4.486 10-10c0-3.283-1.6-6.176-4.062-8H42v4zm-18-4a8.01 8.01 0 0 1 8 8 8.01 8.01 0 0 1-8 8 8.01 8.01 0 0 1-8-8 8.01 8.01 0 0 1 8-8zm22-4c0 1.103-.897 2-2 2H4c-1.102 0-2-.897-2-2V2h44v6z"/><circle cx="37" cy="15" r="1"/></g></svg>