<svg xmlns="http://www.w3.org/2000/svg" viewBox="0 0 512 512"><path d="M449.716 239.842c-.543-7.535-7.082-13.2-14.628-12.66-7.536.543-13.204 7.092-12.662 14.628a197.44 197.44 0 0 1 .506 14.191c0 109.06-88.726 197.787-197.786 197.787S27.36 365.06 27.36 256 116.086 58.214 225.147 58.214c43.2 0 84.2 13.668 118.62 39.525 6.04 4.538 14.615 3.32 19.154-2.718a13.68 13.68 0 0 0-2.717-19.154c-39.2-29.447-85.9-45.012-135.058-45.012C101 30.854 0 131.855 0 256s101 225.145 225.147 225.145 225.145-101 225.145-225.145c0-5.414-.195-10.85-.576-16.158zm46.68-178.072c-20.808-20.807-54.666-20.807-75.474 0l-197.1 197.108-69.874-69.875c-20.808-20.807-54.666-20.807-75.474 0s-20.808 54.666 0 75.474l120.34 120.34c6.895 6.895 15.95 10.342 25.007 10.342s18.113-3.447 25.008-10.342L496.404 137.24c20.806-20.807 20.806-54.663 0-75.472zm-19.346 56.127L229.472 365.475a8.02 8.02 0 0 1-11.32 0L97.8 245.133c-10.14-10.14-10.14-26.64 0-36.78 5.07-5.072 11.73-7.606 18.4-7.606s13.32 2.535 18.4 7.606l71.882 71.882c4.632 4.63 10.8 7.18 17.34 7.18a24.36 24.36 0 0 0 17.341-7.182L440.268 81.116c10.138-10.14 26.64-10.14 36.78 0s10.14 26.64 0 36.78z"/></svg>