<svg xmlns="http://www.w3.org/2000/svg" width="14" height="14" fill-rule="evenodd"><path fill="#333" d="M-70-407h748V803H-70z"/><path d="M8.06 7.036l4.72-4.55c.293-.282.293-.74 0-1.023a.77.77 0 0 0-1.061 0L7 6.013l-4.72-4.55a.77.77 0 0 0-1.061 0c-.293.282-.293.74 0 1.023l4.72 4.55-4.72 4.55c-.293.282-.293.74 0 1.023.147.14.34.212.53.212s.384-.07.53-.212L7 8.06l4.72 4.55c.147.14.34.212.53.212s.384-.07.53-.212c.293-.282.293-.74 0-1.023l-4.72-4.55z" fill="#fff" fill-rule="nonzero" stroke="#fff"/></svg>