<svg xmlns="http://www.w3.org/2000/svg" width="39" height="48" fill-rule="evenodd"><circle fill-opacity="0" fill="#d8d8d8" cx="19" cy="24" r="26"/><path d="M29.6 5.6H28a.8.8 0 1 0 0 1.6h1.6a.8.8 0 1 0 0-1.6zm-23.2 12H4v11.2h9.6V17.6H6.4zm3.2 1.6v2.4H8v-2.4h1.6zm2.4 0v8H5.6v-8h.8v4h4.8v-4h.8zm4-3.2a.8.8 0 0 0-.8.8v12.8a.8.8 0 1 0 1.6 0V16.8a.8.8 0 0 0-.8-.8zm6.4 0a.8.8 0 0 0-.8.8v12.8a.8.8 0 0 0 1.6 0V16.8a.8.8 0 0 0-.8-.8zM12 36a.8.8 0 0 0 .8.8h12.8a.8.8 0 0 0 0-1.6H12.8a.8.8 0 0 0-.8.8zM36.664 0H1.736A1.74 1.74 0 0 0 0 1.736v43.92C0 46.95 1.05 48 2.344 48h33.712a2.35 2.35 0 0 0 2.344-2.344V1.736A1.74 1.74 0 0 0 36.664 0zM1.6 1.736c0-.075.06-.136.136-.136H18.4V32H1.6V1.736zm35.2 43.92c0 .4-.334.744-.744.744H2.344c-.4 0-.744-.334-.744-.744V33.6h35.2v12.056zM20 32V1.6h16.664c.075 0 .136.06.136.136V32H20z" fill="#333" fill-rule="nonzero"/></svg>