<svg xmlns="http://www.w3.org/2000/svg" width="41" height="48" fill-rule="evenodd"><circle cx="20" cy="24" r="26" fill="#d8d8d8" fill-opacity="0"/><path d="M10.902 5.038a4.38 4.38 0 0 0 .753-3.731c-.157-.543.157-1.11.7-1.267s1.11.157 1.267.7c.53 1.838.078 4.08-1.123 5.578-1.094 1.365-1.38 3.768-.122 4.94.413.386.436 1.034.05 1.447a1.02 1.02 0 0 1-1.447.05c-2.145-2-1.772-5.607-.08-7.72zm6.73 1.19h6.735c.566 0 1.024-.458 1.024-1.024s-.458-1.024-1.024-1.024h-6.735c-.566 0-1.024.458-1.024 1.024s.458 1.024 1.024 1.024zm22.834 9.804v8.198a8.07 8.07 0 0 1-7.03 7.989v9.145h1.022c.566 0 1.024.458 1.024 1.024v4.548c0 .566-.458 1.024-1.024 1.024H1.092c-.566 0-1.024-.458-1.024-1.024v-4.548c0-.566.458-1.024 1.024-1.024h.85c-.402-8.83.467-18.754 3.96-22.05L.265 11.586c-.128-.175-.197-.387-.197-.603V9c0-.272.108-.532.3-.724s.452-.3.724-.3h4.24c.186-1.082.638-2.118 1.296-2.938a4.38 4.38 0 0 0 .753-3.731c-.157-.543.157-1.11.7-1.268s1.11.157 1.267.7c.53 1.838.078 4.08-1.123 5.58-.556.693-.902 1.654-.945 2.585a1.05 1.05 0 0 1 .004.097c0 .045-.003.1-.01.134.008.82.26 1.597.827 2.125.413.386.436 1.034.05 1.447s-1.034.436-1.447.05c-.744-.694-1.224-1.64-1.397-2.732H2.116v.624l6.027 8.264a1.07 1.07 0 0 1 .048.069 1.02 1.02 0 0 1 .135.327c.033.15.03.3-.001.446s-.1.288-.195.41a1.02 1.02 0 0 1-.259.233c-.023.015-.047.028-.07.04-1.255.687-2.372 3.137-3.067 6.726-.742 3.83-.997 8.733-.74 14.2H31.39V31.26c0-.566.458-1.024 1.024-1.024 3.312 0 6.006-2.694 6.006-6.006V16.03c0-3.312-2.694-6.006-6.006-6.006h-7.02v22.17c0 1.787-1.454 3.24-3.24 3.24s-3.24-1.454-3.24-3.24V13.057c0-.566.458-1.024 1.024-1.024s1.024.458 1.024 1.024v19.137c0 .658.535 1.193 1.192 1.193s1.194-.535 1.194-1.193v-22.17h-8.84V7.977h17.9c4.44 0 8.054 3.613 8.054 8.054zm-7.032 27.38H2.116v2.5h31.32v-2.5zm-1.022-17.077c.566 0 1.024-.458 1.024-1.024V14.95c0-.566-.458-1.024-1.024-1.024s-1.024.458-1.024 1.024V25.3c0 .566.458 1.024 1.024 1.024z" fill="#333" fill-rule="nonzero"/></svg>