<svg xmlns="http://www.w3.org/2000/svg" width="48" height="45" fill-rule="evenodd"><circle fill-opacity="0" fill="#d8d8d8" cx="24" cy="22" r="26"/><g fill="#333" fill-rule="nonzero"><path d="M47.656 20.353l-23-20.107a1 1 0 0 0-1.312 0l-23 20.107c-.314.276-.426.72-.28 1.11a1 1 0 0 0 .937.653h5V43.23c0 .556.447 1.005 1 1.005h34c.553 0 1-.45 1-1.005V22.117h5a1 1 0 0 0 .937-.653c.144-.393.033-.836-.28-1.11zM41 20.107c-.553 0-1 .45-1 1.005v21.113H8V21.112c0-.556-.447-1.005-1-1.005H3.674L24 2.337l20.326 17.77H41z"/><circle cx="28.235" cy="22.588" r="1.882"/><path d="M20.33 23.247c0 .78.127 1.55.382 2.295l-6.29 6.29c-.194.194-.303.457-.303.732v3.106c0 .572.463 1.035 1.035 1.035h3.106c.275 0 .538-.11.732-.303l6.29-6.3c.746.253 1.514.38 2.295.38a7.26 7.26 0 0 0 7.247-7.247A7.26 7.26 0 0 0 27.576 16a7.26 7.26 0 0 0-7.247 7.247zm7.247-5.177c2.855 0 5.176 2.322 5.176 5.176s-2.32 5.177-5.176 5.177c-.724 0-1.438-.157-2.12-.466a1.03 1.03 0 0 0-1.159.211l-6.466 6.467h-1.642v-1.642l6.466-6.467c.305-.304.388-.765.212-1.158-.31-.686-.467-1.4-.467-2.122 0-2.854 2.32-5.176 5.176-5.176z"/></g></svg>