<svg xmlns="http://www.w3.org/2000/svg" xmlns:xlink="http://www.w3.org/1999/xlink" width="48" height="46"><g fill-rule="evenodd"><circle cx="24" cy="23" r="26" fill="#d8d8d8" fill-opacity="0"/><g fill="#333" fill-rule="nonzero"><path d="M42.593 22.416h-27.19V10.583a3.59 3.59 0 0 0-1.611-6.953c-1.814.207-3.184 1.74-3.185 3.567.002 1.622 1.09 3.043 2.658 3.465v11.755H6.807c-2.95.003-5.342 2.394-5.345 5.345v10.962a1.07 1.07 0 0 0 1.069 1.069h3.466v4.497a1.07 1.07 0 0 0 1.069 1.069H41.83a1.07 1.07 0 0 0 1.069-1.069v-4.497h3.97a1.07 1.07 0 0 0 1.069-1.069V27.76a5.35 5.35 0 0 0-5.345-5.345zm-29.85-15.22a1.45 1.45 0 1 1 2.9 0 1.45 1.45 0 0 1-1.45 1.45c-.8-.001-1.45-.65-1.45-1.45zM40.762 43.22H8.134v-3.428h32.628v3.428zm5.04-5.566H3.6V27.76a3.21 3.21 0 0 1 3.207-3.207h35.787a3.21 3.21 0 0 1 3.207 3.207v9.893z"/><use xlink:href="#B"/><path d="M37.026 27.34a3.49 3.49 0 0 0-3.488 3.487 3.49 3.49 0 0 0 3.488 3.488c1.883 0 3.415-1.515 3.486-3.448l.001-.04a3.49 3.49 0 0 0-3.487-3.487zm0 4.837a1.35 1.35 0 0 1-1.35-1.343 1.35 1.35 0 0 1 1.337-1.356 1.35 1.35 0 0 1 1.362 1.33c-.038.77-.627 1.37-1.35 1.37h0z"/><use xlink:href="#B" x="6.229"/><path d="M7.533 11.5a1.07 1.07 0 0 0 .756-1.825 3.86 3.86 0 0 1 0-5.441 1.07 1.07 0 0 0-.473-1.801 1.07 1.07 0 0 0-1.039.289 6 6 0 0 0 0 8.465c.2.2.472.314.756.313zm-4.088 2.257a1.07 1.07 0 0 0 .756-1.825c-2.756-2.757-2.754-7.28.006-10.083A1.07 1.07 0 0 0 3.718.056a1.07 1.07 0 0 0-1.034.293c-3.58 3.637-3.578 9.5.006 13.095.2.2.472.314.756.313z"/></g></g><defs ><path id="B" d="M10.623 28.02a1.07 1.07 0 0 0-1.069 1.069v4.03a1.07 1.07 0 0 0 1.069 1.069 1.07 1.07 0 0 0 1.069-1.069v-4.03a1.07 1.07 0 0 0-1.069-1.069z"/></defs></svg>