<svg xmlns="http://www.w3.org/2000/svg" width="48" height="23" fill-rule="evenodd"><circle fill-opacity="0" fill="#d8d8d8" cx="24" cy="10" r="26"/><path d="M42.903 0c-2.8 0-5.097 2.312-5.097 5.153a5.16 5.16 0 0 0 .828 2.81L33.13 13.53c-.8-.53-1.755-.837-2.78-.837a5.03 5.03 0 0 0-2.866.895L21.92 7.963a5.16 5.16 0 0 0 .828-2.81C22.747 2.312 20.46 0 17.65 0s-5.097 2.312-5.097 5.153a5.16 5.16 0 0 0 .828 2.81L7.875 13.53a5.03 5.03 0 0 0-2.78-.837c-2.8 0-5.097 2.312-5.097 5.153S2.286 23 5.097 23s5.097-2.312 5.097-5.153a5.16 5.16 0 0 0-.828-2.81L14.87 9.47c.8.53 1.755.837 2.78.837a5.04 5.04 0 0 0 2.78-.837l5.594 5.657c-.488.8-.77 1.723-.77 2.72 0 2.84 2.286 5.153 5.097 5.153s5.097-2.312 5.097-5.153a5.16 5.16 0 0 0-.828-2.81l5.506-5.568a5.03 5.03 0 0 0 2.78.837c2.8 0 5.097-2.312 5.097-5.153S45.714 0 42.903 0zM5.097 20.87c-1.65 0-3-1.356-3-3.023s1.34-3.023 3-3.023 3 1.356 3 3.023-1.34 3.023-3 3.023zM17.65 8.176c-1.65 0-3-1.356-3-3.023s1.34-3.023 3-3.023 3 1.356 3 3.023-1.34 3.023-3 3.023zm12.7 12.694c-1.65 0-3-1.356-3-3.023s1.34-3.023 3-3.023 3 1.356 3 3.023-1.34 3.023-3 3.023zM42.903 8.176c-1.65 0-3-1.356-3-3.023s1.34-3.023 3-3.023 3 1.356 3 3.023-1.34 3.023-3 3.023zM16.7 12.3a.99.99 0 0 0-1.402 0L13.3 14.307A.99.99 0 0 0 13.992 16a.99.99 0 0 0 .701-.29l2.017-2.017a.99.99 0 0 0 0-1.402zm19-6a.99.99 0 0 0-1.402 0L32.3 8.307A.99.99 0 0 0 32.992 10a.99.99 0 0 0 .701-.29L35.7 7.693a.99.99 0 0 0 0-1.402z" fill="#333" fill-rule="nonzero"/></svg>