<svg xmlns="http://www.w3.org/2000/svg" width="48" height="48" fill-rule="evenodd"><circle fill-opacity="0" fill="#d8d8d8" cx="24" cy="22" r="26"/><path d="M25.102 17.024c0-1.645-1.373-2.983-3.06-2.983s-3.06 1.338-3.06 2.983v12.3c-.654.724-1.02 1.655-1.02 2.615 0 2.194 1.832 3.978 4.082 3.978s4.082-1.784 4.082-3.978a3.91 3.91 0 0 0-1.02-2.615v-12.3zM22.04 33.93c-1.126 0-2.04-.892-2.04-2a1.94 1.94 0 0 1 .684-1.47.98.98 0 0 0 .337-.738V17.024c0-.55.458-.994 1.02-.994s1.02.446 1.02.994V29.73a.98.98 0 0 0 .337.738c.44.387.684.9.684 1.47 0 1.096-.915 2-2.04 2zM44 26h-4v-4h3.03a1 1 0 0 0 .689-1.725l-21.03-20a1 1 0 0 0-1.379 0l-21 20a1 1 0 0 0-.238 1.096A1 1 0 0 0 1 22h3v19a1 1 0 0 0 1 1h27.284c.894 3.44 4 6 7.716 6a8.01 8.01 0 0 0 8-8V30c0-2.206-1.795-4-4-4zm-12 4v10H6V21a1 1 0 0 0-1-1H3.5L22 2.38 40.53 20H39a1 1 0 0 0-1 1v5h-2c-2.205 0-4 1.794-4 4zm14 10a6.01 6.01 0 0 1-6 6 6.01 6.01 0 0 1-6-6V30c0-1.102.897-2 2-2h8a2 2 0 0 1 2 2v10zm-4.204-8h-.98v-.98a.98.98 0 1 0-1.96 0V32h-.98a.98.98 0 1 0 0 1.96h.98v.98a.98.98 0 1 0 1.96 0v-.98h.98a.98.98 0 1 0 0-1.96zm0 7.837h-3.918a.98.98 0 0 0 0 1.96h3.918a.98.98 0 0 0 0-1.96z" fill="#333" fill-rule="nonzero"/></svg>